<svg width="98" height="48" viewBox="0 0 98 48" fill="none" xmlns="http://www.w3.org/2000/svg">
<path fill-rule="evenodd" clip-rule="evenodd" d="M47.626 2.03299C41.3327 2.49962 35.4836 4.85307 30.5383 8.90808C29.6597 9.62884 27.9457 11.2069 27.9457 11.2954C27.9457 11.4218 28.4651 11.3321 28.6584 11.1723C29.6423 10.3601 30.5444 10.1195 33.3572 9.91779C35.8873 9.73643 36.9095 9.40877 41.5321 7.2972C42.5646 6.82568 42.1642 6.71539 44.4219 8.0932C45.5394 8.775 46.1582 9.05047 46.573 9.05047C47.0802 9.05047 48.2268 8.27333 49.7188 6.91783C50.2463 6.43846 50.1801 6.44851 50.6155 6.78009C51.8741 7.73858 51.7844 7.69496 52.062 7.48468C52.3501 7.26657 52.3932 7.28397 53.2395 7.95817C54.0127 8.57429 54.4258 8.63825 56.3353 8.43631C56.7072 8.39685 57.4302 8.352 57.9417 8.33632L58.8718 8.30789L59.5725 8.02777C60.6701 7.58909 60.377 7.56556 62.0208 8.22407C63.8492 8.9566 64.0778 9.03797 64.5239 9.11541C65.0722 9.2105 65.5485 9.35951 66.1537 9.62492C68.1382 10.4952 70.6004 11.3343 71.1695 11.3343H71.4689L71.0892 10.95C66.147 5.94659 59.5847 2.8312 52.4246 2.08936C51.6582 2.00996 48.4458 1.97221 47.626 2.03299ZM65.0747 36.0398C65.035 36.0795 65.0232 37.1137 65.0232 40.608V45.1245H66.038H67.0531L67.0423 40.5678L67.0315 36.0109L66.0789 35.9996C65.3736 35.9911 65.1129 36.0016 65.0747 36.0398ZM67.4014 36.0163C67.3613 36.0337 67.3485 36.2714 67.3485 36.9998V37.9602L67.6256 38.0078C68.1592 38.0992 68.2575 38.2457 68.2575 38.9501C68.2575 39.6807 68.157 39.8326 67.6445 39.8775L67.3696 39.9017L67.3583 40.8484C67.348 41.7106 67.3547 41.8158 67.4321 42.0231C67.4789 42.1483 67.5945 42.5596 67.6891 42.937C67.9054 43.8009 68.2259 44.9412 68.2815 45.0454C68.3449 45.164 70.2856 45.1691 70.2479 45.0505C70.2351 45.0098 70.0271 44.1486 69.7858 43.137L69.347 41.2972L69.5496 41.0751C70.0766 40.4977 70.2312 40.0696 70.2554 39.1192C70.292 37.6867 69.7819 36.7023 68.7649 36.2425C68.393 36.0744 67.5803 35.9396 67.4014 36.0163ZM79.9474 36.0364C79.2945 36.1423 78.4715 36.7814 78.1562 37.4277C77.5244 38.7227 77.982 40.1399 79.3099 41.0001C79.4628 41.0992 79.8114 41.3249 80.0846 41.5021C81.1457 42.1895 81.3231 42.601 80.7613 43.0715L80.6239 43.1867V44.1557V45.1245H80.8169C81.6428 45.1245 82.7316 44.1731 82.9705 43.2426C83.3389 41.8072 82.6924 40.7129 80.798 39.566C79.8082 38.9668 79.5762 38.4266 80.1647 38.0916L80.3284 37.9985L80.3176 37.0054C80.3054 35.8876 80.3379 35.9732 79.9474 36.0364ZM80.6239 36.9829V37.9803L80.7733 38.0686C80.9673 38.183 81.0526 38.3548 81.0791 38.6839L81.1004 38.9501H82.0943H83.0881L83.0592 38.559C82.9589 37.1946 82.0586 36.1393 80.888 36.0139L80.6239 35.9857V36.9829ZM1.40211 36.0678C1.40995 36.0874 1.69219 36.5248 2.02931 37.04L2.6423 37.9767L8.55073 37.9771L14.4589 37.9774V37.0047V36.032H7.92352C4.32913 36.032 1.39452 36.0482 1.40211 36.0678ZM17.5702 36.1484C17.5045 36.4655 16.4074 44.1173 16.3273 44.8179L16.2922 45.1245H17.2747H18.2574L18.2809 45.0083C18.3093 44.8679 19.5745 36.1281 19.5745 36.0717C19.5745 36.0482 19.1722 36.032 18.5845 36.032H17.5942L17.5702 36.1484ZM19.8705 36.0741C19.8705 36.0974 19.7742 36.7969 19.6561 37.6284C19.3778 39.5927 19.3682 39.7922 19.5091 40.7051C19.5701 41.1006 19.6316 41.5146 19.6456 41.6251L19.671 41.8258H19.392H19.1129L19.071 41.9844C19.0186 42.1843 18.9189 42.7892 18.8571 43.285C18.8309 43.4943 18.8005 43.7085 18.7895 43.7607C18.7697 43.8558 18.7702 43.8558 19.3579 43.8558C19.9332 43.8558 19.9464 43.858 19.9677 43.9511C19.9797 44.0033 20.0238 44.2888 20.0655 44.5853L20.1412 45.1245H21.1263C21.9667 45.1245 22.1112 45.1154 22.1112 45.062C22.1112 44.9314 21.7967 42.6777 21.4321 40.1978C21.2236 38.7788 21.0151 37.3098 20.969 36.9334C20.8497 35.9609 20.8997 36.032 20.3367 36.032C20.0552 36.032 19.8705 36.0487 19.8705 36.0741ZM23.7179 40.5784V45.1245H24.7114H25.7049V40.5784V36.032H24.7114H23.7179V40.5784ZM26.029 36.0602C26.0136 36.0759 26.0009 36.5204 26.0009 37.0483V38.008L26.2476 38.0303C26.923 38.0916 26.9074 38.034 26.9218 40.5046C26.9365 42.949 26.9223 43.0335 26.4842 43.1122C26.3929 43.1286 26.2466 43.1607 26.1594 43.1835L26.0009 43.2247V44.1793V45.1336L26.4813 45.1184L26.9617 45.1032L27.4177 44.8765C28.2164 44.4792 28.6961 43.9028 28.8561 43.1472C28.9291 42.8024 28.9462 38.5237 28.8762 38.1418C28.7522 37.4667 28.0905 36.5895 27.4807 36.2923C27.0664 36.0903 26.1459 35.9433 26.029 36.0602ZM30.6255 36.0928C30.6122 36.1271 30.7186 36.7983 30.8617 37.5843C31.1351 39.0864 32.1437 44.5216 32.2197 44.9025L32.264 45.1245H33.1534H34.043L34.0177 44.987C33.9589 44.6699 33.2195 39.7606 32.9777 38.0833C32.8334 37.0829 32.6928 36.217 32.6649 36.1589L32.6141 36.0533L31.6317 36.0418C30.7982 36.0322 30.6458 36.0398 30.6255 36.0928ZM34.6268 36.254C34.4825 36.9221 33.8646 41.2048 33.8646 41.5364C33.8646 41.7964 34.105 43.496 34.3529 44.987L34.3757 45.1245H34.7111C35.0247 45.1245 35.048 45.1184 35.0678 45.0294C35.0793 44.977 35.2045 44.2966 35.3456 43.5176C35.4868 42.7382 35.854 40.7565 36.162 39.1138C36.4697 37.4708 36.7145 36.1055 36.7059 36.0793C36.6949 36.0462 36.3881 36.032 35.6825 36.032H34.6748L34.6268 36.254ZM38.4304 40.5784V45.1245H39.4242H40.4176V40.5784V36.032H39.4242H38.4304V40.5784ZM40.7557 37.026V38.0198H41.7071H42.6584V37.026V36.032H41.7071H40.7557V37.026ZM44.3776 36.0602C44.3043 36.1337 44.4628 36.555 46.121 40.6877L47.8923 45.1034L48.89 45.1147L49.8879 45.126V44.9642C49.8879 44.8125 49.3393 43.4195 46.8824 37.3331L46.3577 36.033L45.3818 36.0325C44.845 36.0322 44.393 36.0447 44.3776 36.0602ZM47.9007 37.526C47.9007 39.2883 47.8255 38.9457 48.6538 40.9494C48.9539 41.6756 49.3278 42.5971 49.4843 42.997C49.6409 43.3967 49.7953 43.7582 49.8271 43.8004C49.8763 43.8656 49.8854 43.2887 49.8864 39.9544L49.8879 36.032H48.8944H47.9007V37.526ZM51.607 36.0602C51.5916 36.0759 51.5789 36.5229 51.5789 37.0542V38.0198H52.1497H52.7206V37.026V36.032H52.1779C51.8795 36.032 51.6227 36.0447 51.607 36.0602ZM53.0587 40.5784V45.1245H54.0311H55.0035V40.5784V36.032H54.0311H53.0587V40.5784ZM55.3416 37.026V38.0222L55.9019 38.0105L56.4619 37.9985V37.026V36.0533L55.9019 36.0413L55.3416 36.0295V37.026ZM71.9339 36.0849C71.9229 36.1141 71.9188 38.1551 71.9249 40.6205L71.9357 45.1034L72.9399 45.1147L73.9439 45.126V40.5791V36.032H72.949C72.1922 36.032 71.9494 36.0447 71.9339 36.0849ZM74.282 37.026V38.0198H75.2334H76.1847V37.026V36.032H75.2334H74.282V37.026ZM84.894 37.0047V37.9774H90.8078H96.7218L97.3397 37.0326C97.6795 36.5131 97.9576 36.0754 97.9576 36.0599C97.9576 36.0447 95.0183 36.032 91.4259 36.032H84.894V37.0047ZM58.1493 36.1327C58.1 36.2611 58.1613 42.9007 58.2137 43.1345C58.4398 44.1383 59.509 45.1245 60.3714 45.1245H60.5841V44.1317V43.1392L60.4606 43.0752C60.3927 43.0401 60.2928 42.9492 60.2386 42.8733L60.1401 42.735L60.1284 39.4047L60.1166 36.0744H59.1442C58.357 36.0744 58.1674 36.0854 58.1493 36.1327ZM61.3874 39.2192C61.3874 42.813 61.3943 42.7245 61.0907 43.0321L60.88 43.2453V44.1849V45.1245H61.0956C61.6947 45.1245 62.7376 44.4025 63.0613 43.7636C63.3344 43.2242 63.3322 43.2607 63.3322 39.4932V36.0744H62.3598H61.3874V39.2192ZM44.3785 37.4127C44.3626 37.4287 44.3494 39.1704 44.3494 41.2832V45.1245H45.3642H46.3787V43.6452V42.1657L45.4281 39.7863C44.5204 37.514 44.4457 37.3453 44.3785 37.4127ZM3.59364 39.3947C3.59364 39.4067 3.88764 39.8635 4.24705 40.41L4.90071 41.4033L9.6694 41.3925L14.4378 41.3817L14.4491 40.3774L14.4606 39.3731H9.02701C6.03874 39.3731 3.59364 39.3829 3.59364 39.3947ZM84.9038 40.3774L84.915 41.3817H89.6923H94.4698L95.1146 40.4093C95.4691 39.8743 95.7592 39.4224 95.7592 39.4047C95.7592 39.3873 93.3141 39.3731 90.3259 39.3731H84.8922L84.9038 40.3774ZM40.7557 40.4303V41.4452H41.7071H42.6584V40.4303V39.4152H41.7071H40.7557V40.4303ZM74.282 40.4303V41.4452H75.2334H76.1847V40.4303V39.4152H75.2334H74.282V40.4303ZM77.8897 42.2312C77.799 42.4679 77.995 43.4198 78.2059 43.768C78.7111 44.6008 79.3379 45.0601 80.0425 45.114L80.3279 45.136V44.1153C80.3279 43.1553 80.3232 43.0946 80.2507 43.0946C80.0687 43.0946 79.8629 42.699 79.8629 42.3493V42.1643H78.889C78.0393 42.1643 77.9122 42.1728 77.8897 42.2312ZM6.05687 43.1475C6.06814 43.1767 6.3565 43.6237 6.69779 44.1413L7.31837 45.0824H10.8888H14.4589V44.0883V43.0946H10.2478C6.89624 43.0946 6.0407 43.1053 6.05687 43.1475ZM84.894 44.0883V45.0824L88.4768 45.0804L92.06 45.0784L92.6597 44.1606C92.9897 43.6558 93.2725 43.2093 93.2879 43.1686C93.3149 43.0985 93.0983 43.0946 89.105 43.0946H84.894V44.0883ZM40.7557 44.1518V45.1245H41.7071H42.6584V44.1518V43.1791H41.7071H40.7557V44.1518ZM74.282 44.1518V45.1245H75.2334H76.1847V44.1518V43.1791H75.2334H74.282V44.1518Z" fill="#FCCC04"/>
<path fill-rule="evenodd" clip-rule="evenodd" d="M52.7732 10.6471C52.6005 10.7331 52.5888 10.6706 52.9122 11.3823L53.1883 11.9898L53.1182 12.1803C53.0797 12.2849 52.8771 12.7008 52.6679 13.1042C52.2085 13.9906 52.2088 13.9879 52.5483 14.8234C52.8426 15.5471 52.8423 15.5461 52.6397 15.2084C52.3391 14.7067 52.0806 14.3357 52.0466 14.3565C52.0022 14.384 51.5615 15.3564 51.2197 16.1809C50.8564 17.057 50.5599 17.6391 49.9506 18.6725C48.3231 21.434 45.2961 26.3054 45.2079 26.3054C45.1966 26.3054 45.2003 26.2297 45.216 26.1373C45.3363 25.4244 45.2292 25.3116 44.0324 24.8911C43.6602 24.7602 42.997 24.5191 42.5582 24.3551C41.2847 23.8789 41.1786 23.8971 41.0128 24.6173C40.5399 26.6718 39.6412 27.481 38.1002 27.2401C36.6481 27.0132 36.0493 25.7807 35.9912 22.8979C35.9239 19.5619 36.6868 17.9819 38.4422 17.8229C39.4923 17.7278 40.0992 18.1417 40.7134 19.3715C41.1583 20.2631 41.283 20.2886 42.8275 19.8043C43.1646 19.6987 43.7396 19.5391 44.1051 19.4502C45.2588 19.1688 45.2998 19.1098 44.9751 18.1893C43.8626 15.0342 41.991 13.5921 38.8957 13.5049C35.7698 13.4167 33.5966 14.6085 32.3258 17.108C30.9462 19.8217 30.8947 24.8413 32.2182 27.6126C33.5358 30.3719 35.28 31.4998 38.3498 31.5779C41.3607 31.6547 43.1629 30.7101 44.3335 28.442C44.4658 28.1856 44.8438 27.5952 45.1733 27.1301C46.0036 25.9581 46.3334 25.4584 47.224 24.0218C47.6493 23.3356 48.0146 22.755 48.0357 22.7317C48.1023 22.6584 47.3134 24.272 46.0818 26.7272C45.4279 28.0307 44.8992 29.1284 44.9065 29.1664C44.9279 29.2745 45.3213 29.4539 46.1462 29.7311C46.5647 29.872 46.9834 30.0244 47.0763 30.07L47.2456 30.1528L47.1042 30.1281C47.0265 30.1144 46.5233 29.9529 45.986 29.769C44.6601 29.3157 44.8529 29.2544 44.2203 30.3298C43.9309 30.8221 43.6882 31.2493 43.681 31.2789C43.6556 31.3829 43.9924 31.3946 45.4909 31.3429C47.2933 31.2807 48.8089 31.2787 49.1269 31.338C50.1557 31.5302 50.0729 31.6132 50.4555 30.0058C50.9259 28.0302 51.3023 26.8576 51.7585 25.9459C52.7171 24.0294 53.8934 23.5407 54.7247 24.7134C55.4984 25.805 56.5213 29.1382 56.6754 31.0706C56.6962 31.3343 56.7195 31.4238 56.7726 31.4466C57.0992 31.5868 59.5286 31.4488 61.0082 31.2062L61.5379 31.1194L62.1533 31.2287C62.8658 31.3552 63.1125 31.3667 63.1475 31.275C63.1615 31.2388 62.9452 30.8001 62.6421 30.2494C62.3505 29.72 62.0144 29.0774 61.8951 28.8216C61.2554 27.4511 60.4993 26.0513 60.1455 25.5827C59.8518 25.1933 59.8207 25.1322 59.7523 24.8126C59.695 24.5436 59.571 24.2487 59.1996 23.4981C58.6844 22.4558 58.6238 22.2764 58.9872 22.8665C59.7278 24.0698 59.8224 24.2502 59.8863 24.5847C59.9655 24.9987 60.0605 25.1832 60.3163 25.419C60.8404 25.9025 61.1473 26.2478 61.4112 26.6507C61.5685 26.8911 61.7853 27.2019 61.8929 27.3416C62.0004 27.481 62.2579 27.8506 62.4654 28.1628C62.8489 28.74 62.9216 28.8231 63.3308 29.1483L63.5618 29.3321L63.6062 29.6526C63.6304 29.8288 63.6716 29.9994 63.6975 30.0318C63.7235 30.0641 63.7541 30.3273 63.7659 30.619C63.8054 31.602 63.7931 31.5971 66.1226 31.5804C67.7236 31.5689 67.7925 31.5542 68.0149 31.1753L68.1308 30.9785V24.7335C68.1308 21.299 68.1404 18.4789 68.1524 18.4669C68.1752 18.4441 68.4403 19.5426 68.9773 21.886C69.1532 22.6535 69.4472 23.8716 69.6305 24.5926C69.814 25.3136 70.1947 26.8933 70.477 28.1028C71.309 31.6684 71.2399 31.439 71.503 31.5105C71.6877 31.5608 74.8424 31.5721 75.1121 31.5235C75.2787 31.4934 75.3052 31.4348 75.4475 30.7812C75.5818 30.1656 75.7479 29.4811 76.0926 28.1239C76.2315 27.5773 76.5387 26.2642 76.7754 25.2058C77.0121 24.1475 77.311 22.8724 77.4396 22.3724C77.568 21.8722 77.8311 20.8064 78.0239 20.004C78.2167 19.2017 78.3924 18.4784 78.4145 18.3971C78.4943 18.0996 78.5193 20.6611 78.4882 25.9616C78.4529 32.0093 78.4169 31.4218 78.8283 31.5252C79.1857 31.6149 82.5856 31.5625 82.7054 31.4652L82.7963 31.3917L82.7911 22.6423C82.788 17.1229 82.771 13.8541 82.7453 13.7872C82.6201 13.4632 82.3413 13.3976 81.3074 13.4475C80.911 13.4667 79.7152 13.4721 78.6499 13.4596C77.5846 13.4471 76.5292 13.4507 76.3045 13.4679L75.8959 13.4985L75.8121 13.6958C75.7658 13.8044 75.6685 14.1548 75.596 14.4747C75.5232 14.7947 75.3777 15.4133 75.2723 15.8493C75.1672 16.2853 74.8627 17.5839 74.5954 18.7353C74.1689 20.5736 73.7903 22.1693 73.392 23.8103C73.327 24.0777 73.2724 24.247 73.2707 24.1862C73.2668 24.0551 72.8297 22.2389 72.4725 20.8711C72.1354 19.5793 72.0521 19.2328 71.3626 16.2485C70.7438 13.5693 70.7379 13.5483 70.5909 13.4975C70.4304 13.4422 64.1314 13.4684 63.9972 13.525C63.7755 13.6186 63.7838 13.3223 63.7929 20.9557C63.8014 28.2346 63.7955 28.5625 63.652 28.7062C63.5003 28.8579 61.6266 26.4 61.113 25.3761C60.9668 25.0839 60.7561 24.7595 60.5263 24.4713C60.1835 24.0421 59.6938 23.252 58.5962 21.3573C58.3333 20.9037 57.9849 20.3349 57.822 20.0932C57.6588 19.8514 57.451 19.4803 57.3601 19.2686C56.8508 18.0819 55.4722 15.4077 55.2333 15.1432C54.8237 14.6898 53.914 12.8057 53.7785 12.1308L53.7305 11.8906L53.9478 11.4627C54.1808 11.0044 54.1808 10.9919 53.9544 10.8591C53.8098 10.774 53.8037 10.7797 53.5925 11.197C53.4458 11.4867 53.4487 11.4884 53.2066 10.9961C52.9844 10.5444 52.9825 10.5429 52.7732 10.6471ZM11.5745 13.4725C11.5618 13.4855 9.42295 13.4963 6.82203 13.4963C1.53223 13.4966 1.82893 13.4797 1.66943 13.7882C1.56212 13.996 1.55281 31.1608 1.65988 31.3637C1.79757 31.6245 1.47858 31.6115 7.66703 31.6066C14.0598 31.6015 13.4831 31.6341 13.6058 31.2706C13.6999 30.991 13.6597 27.7565 13.56 27.6045C13.4289 27.4046 13.5289 27.4077 8.48876 27.4472C6.11103 27.4658 5.78764 27.4607 5.73055 27.4038C5.61148 27.2847 5.56812 26.6882 5.59017 25.4793C5.62177 23.7738 5.43435 23.9039 7.75793 23.973C9.51286 24.0252 11.9942 24.0316 12.472 23.985L12.7469 23.9583L12.8027 23.789C12.8841 23.5429 12.8581 20.4719 12.7736 20.3702C12.616 20.1805 11.5897 20.1266 9.19534 20.182C5.8751 20.2589 5.74304 20.2442 5.62936 19.7886C5.55538 19.4921 5.61467 17.5847 5.70066 17.4989C5.7428 17.4567 6.53391 17.4455 9.47121 17.4455H13.1884L13.28 17.3536C13.4037 17.23 13.4601 16.3387 13.4292 14.9925C13.3988 13.6711 13.378 13.6186 12.8368 13.5051C12.5812 13.4515 11.6204 13.4267 11.5745 13.4725ZM15.3162 13.4941C15.0599 13.5718 15.0712 13.3483 15.0937 17.9106C15.1194 23.1356 15.1202 28.5552 15.0954 30.0269C15.0663 31.7647 14.8399 31.613 17.4607 31.613C19.835 31.613 19.6382 31.6934 19.6309 30.7248C19.6292 30.469 19.6132 28.7689 19.5961 26.947C19.5787 25.1249 19.5787 23.2606 19.5958 22.8035L19.6269 21.973L19.7218 22.0921C19.965 22.3974 21.5161 25.0879 23.7197 29.0272C24.9471 31.2218 25.1091 31.4745 25.3521 31.576C25.6392 31.6961 29.4593 31.6368 29.6122 31.5101C29.7192 31.4211 29.7219 31.2152 29.7256 22.6876C29.7295 13.1508 29.7521 13.8455 29.4333 13.6321C29.1126 13.4174 25.8708 13.3542 25.4744 13.5546C25.211 13.688 25.2203 13.5091 25.236 18.103C25.2438 20.4187 25.2362 22.5276 25.2191 22.7896L25.188 23.266L25.0939 23.1258C25.0422 23.0486 24.9084 22.8143 24.7962 22.605C23.4896 20.1631 19.9964 14.0656 19.699 13.7076C19.5304 13.5046 19.2908 13.4806 17.2916 13.4662C16.1739 13.4581 15.399 13.4691 15.3162 13.4941ZM84.7051 13.5919L84.6002 13.6965L84.6201 14.5136C84.6402 15.3358 84.7127 28.5241 84.7068 30.2597C84.7019 31.6968 84.5848 31.6073 86.4916 31.6208C87.9104 31.6309 88.4992 31.6 88.7072 31.5054C88.9277 31.4049 88.9237 31.4681 88.913 28.0748L88.9029 24.9175L90.9043 24.8972C93.3702 24.8722 93.9494 24.7805 94.9733 24.2529C98.038 22.6736 98.7722 17.6521 96.3191 15.0506C95.8055 14.5063 94.9605 13.9578 94.337 13.7647C93.5493 13.5206 93.5461 13.5203 89.0056 13.5032L84.8097 13.487L84.7051 13.5919ZM91.0018 17.3192C91.7118 17.4263 92.1225 17.6719 92.3711 18.1385C93.1127 19.5306 92.5147 20.8385 91.0212 21.0905C90.5003 21.1782 89.3246 21.1902 89.1337 21.1096C88.9159 21.0177 88.9088 20.9584 88.899 19.1769C88.888 17.1813 88.8431 17.2616 89.9672 17.2577C90.3095 17.2565 90.7664 17.2837 91.0018 17.3192ZM53.3257 18.175C53.3358 18.1924 53.3576 18.6083 53.374 19.099L53.4041 19.9913L52.6079 20.0423C52.1698 20.0705 51.7592 20.1033 51.6952 20.1155C51.5843 20.1366 51.5789 20.13 51.5789 19.9695C51.5789 19.2191 52.2338 18.4223 53.0261 18.2089C53.2966 18.1361 53.3027 18.1353 53.3257 18.175ZM54.3915 18.2743C54.8641 18.451 55.294 18.8745 55.4935 19.3595C55.6591 19.7624 55.6419 19.8219 55.3524 19.8514C54.9167 19.8955 53.813 19.9692 53.8008 19.9548C53.7944 19.9469 53.777 19.5337 53.7621 19.0365L53.7351 18.1324L53.9502 18.1608C54.0683 18.1765 54.267 18.2275 54.3915 18.2743ZM55.5956 20.5589C55.4513 21.3777 54.8146 22.0337 54.0257 22.1771L53.8721 22.2051L53.8468 21.8129C53.8329 21.5973 53.8162 21.1828 53.8098 20.8922L53.7986 20.3636L54.6865 20.2981C55.7091 20.2226 55.6576 20.2079 55.5956 20.5589ZM53.3708 20.6912C53.3835 20.8598 53.4026 21.2716 53.4129 21.6058L53.4316 22.2139L53.1922 22.1864C52.6003 22.1183 51.9934 21.6652 51.7295 21.0944C51.5235 20.6488 51.5061 20.5126 51.6541 20.5077C51.7173 20.5055 52.064 20.4795 52.4246 20.4501C52.785 20.4207 53.14 20.3939 53.2135 20.3905L53.3473 20.3846L53.3708 20.6912Z" fill="#34CC9C"/>
<path fill-rule="evenodd" clip-rule="evenodd" d="M52.9217 18.2675C52.2433 18.4843 51.7212 19.099 51.6264 19.7923C51.6055 19.9435 51.5945 20.0737 51.6016 20.0815C51.6149 20.0962 52.6779 20.0237 53.1116 19.9786L53.3546 19.9533L53.3544 19.4816C53.3544 19.2223 53.3419 18.8245 53.3269 18.5976C53.2958 18.1292 53.3122 18.1427 52.9217 18.2675ZM53.7934 19.0331C53.8096 19.5068 53.8314 19.9026 53.8414 19.9129C53.8757 19.9472 55.5954 19.821 55.5954 19.7842C55.5954 19.1269 54.7366 18.2871 53.9718 18.1966L53.7637 18.1719L53.7934 19.0331ZM54.583 20.3276C54.1773 20.3601 53.8392 20.393 53.8314 20.4008C53.8235 20.4087 53.8304 20.8099 53.8463 21.2922L53.8755 22.1693L54.0484 22.1431C54.8258 22.0257 55.5954 21.1466 55.5954 20.3756C55.5954 20.2369 55.6684 20.2403 54.583 20.3276ZM52.2271 20.4856C51.5374 20.5395 51.558 20.5297 51.6222 20.7714C51.8079 21.4691 52.4466 22.0433 53.1601 22.1536L53.4095 22.1921L53.3823 21.5948C53.3671 21.2664 53.3548 20.8692 53.3548 20.7123L53.3546 20.4268L53.0902 20.4327C52.945 20.4359 52.5566 20.4599 52.2271 20.4856Z" fill="#F9FBFA"/>
<path fill-rule="evenodd" clip-rule="evenodd" d="M53.7449 18.6081C53.7449 18.6895 53.7537 18.7228 53.7642 18.6821C53.7748 18.6412 53.7748 18.5748 53.7642 18.5341C53.7537 18.4932 53.7449 18.5265 53.7449 18.6081ZM53.3651 19.348C53.3656 19.4411 53.3744 19.4742 53.3845 19.4215C53.3945 19.3691 53.3943 19.2929 53.3837 19.2524C53.373 19.212 53.3649 19.2551 53.3651 19.348ZM53.7931 20.404C53.7801 20.4381 53.7792 20.4905 53.7912 20.5202C53.8032 20.5501 53.8144 20.5332 53.8164 20.4829C53.8181 20.4325 53.8434 20.3817 53.8725 20.37C53.9139 20.3533 53.9137 20.3479 53.871 20.3452C53.8414 20.3435 53.8064 20.37 53.7931 20.404ZM53.3644 20.8072C53.3644 20.8885 53.373 20.9219 53.3837 20.8812C53.3943 20.8405 53.3943 20.7738 53.3837 20.7332C53.373 20.6925 53.3644 20.7258 53.3644 20.8072ZM53.8294 21.6529C53.8294 21.7343 53.8382 21.7676 53.8487 21.7269C53.8593 21.6863 53.8593 21.6196 53.8487 21.5789C53.8382 21.5382 53.8294 21.5716 53.8294 21.6529ZM53.4075 22.0546C53.408 22.1477 53.4166 22.1808 53.4269 22.1281C53.4369 22.0757 53.4364 21.9995 53.4259 21.959C53.4153 21.9186 53.407 21.9617 53.4075 22.0546Z" fill="#5BD6AD"/>
<path fill-rule="evenodd" clip-rule="evenodd" d="M53.7422 18.3226L53.7493 18.5023L53.7657 18.3464C53.7785 18.2263 53.8034 18.1861 53.875 18.1724C53.9514 18.1574 53.9475 18.1533 53.8515 18.1486C53.7407 18.143 53.7353 18.1518 53.7422 18.3226ZM53.3259 18.4812C53.3259 18.6324 53.3335 18.6941 53.3428 18.6187C53.3522 18.5429 53.3522 18.4192 53.3428 18.3437C53.3335 18.2682 53.3259 18.33 53.3259 18.4812ZM53.7909 19.496C53.7909 19.6472 53.7985 19.7092 53.8079 19.6335C53.8174 19.558 53.8174 19.4343 53.8079 19.3588C53.7985 19.2831 53.7909 19.3448 53.7909 19.496ZM53.3622 19.7154C53.3546 19.9531 53.3531 19.956 53.2172 19.9729L53.0797 19.9901L53.2186 19.9967C53.3838 20.0048 53.4075 19.96 53.386 19.6811L53.3698 19.475L53.3622 19.7154ZM53.9571 20.3712C53.9977 20.3817 54.0644 20.3817 54.105 20.3712C54.1457 20.3604 54.1124 20.3518 54.031 20.3518C53.9497 20.3518 53.9164 20.3604 53.9571 20.3712ZM53.3676 21.1667C53.3678 21.3062 53.3759 21.3581 53.3852 21.2821C53.3945 21.2062 53.3945 21.092 53.3847 21.0285C53.3752 20.9648 53.3673 21.027 53.3676 21.1667ZM53.8328 21.2934C53.8331 21.4331 53.8409 21.4851 53.8502 21.4091C53.8598 21.3331 53.8595 21.2189 53.8497 21.1552C53.8402 21.0917 53.8326 21.154 53.8328 21.2934Z" fill="#84E4C4"/>
</svg>
